<svg width="295" height="57" viewBox="0 0 295 57" fill="none" xmlns="http://www.w3.org/2000/svg">
<path d="M292.449 32.3341C292.449 32.3341 291.742 36.1667 291.463 37.5167C288.655 51.1131 285.072 53.0436 271.914 53.0436H260.486L294.751 2.69838L293.962 0.807617H256.881L254.574 20.9064L257.132 21.2032C257.225 20.6436 257.315 20.116 257.372 19.8041C259.598 7.4404 262.282 3.72317 274.618 3.72317H285.221L251.038 54.0684L251.825 55.9592H292.226L295 32.6385L292.449 32.3341Z" fill="#222222"/>
<path d="M3.63215 35.9452C6.25085 48.1784 11.5904 53.8696 20.9477 53.8696C27.7715 53.8696 32.7858 48.9971 32.869 43.0772C32.869 38.1442 29.3332 35.2986 19.7962 31.1862C8.0414 26.0906 1.46345 21.2918 1.46345 13.2353C1.46345 5.67228 8.2872 0 18.0681 0C24.5231 0 26.2853 2.15357 33.5477 2.15357L37.6185 21.999L35.4347 22.4528L34.6841 20.1479C30.5963 7.60652 25.9601 2.85315 17.9036 2.85315C11.0798 2.85315 7.95631 7.72564 8.03762 11.509C8.11892 15.7841 11.4901 18.796 21.2729 23.071C35.9055 29.4826 39.8024 34.3627 39.8024 41.2677C39.8024 49.6532 32.6175 56.7228 20.286 56.7228C13.4074 56.7228 10.6147 54.5352 2.95904 54.5352L0 30.7494L2.44664 30.428L3.63215 35.9452Z" fill="#222222"/>
<path d="M94.3201 0.809326H77.3638V3.17278C84.3048 3.43748 84.3067 6.76711 84.3067 13.882V35.4613C84.3067 47.4317 79.5023 53.259 70.1316 53.259C57.2953 53.259 56.2705 45.3046 56.2705 35.6182V11.0478C56.2705 5.16942 56.2724 3.49799 62.4476 3.19925V0.809326H42.2959V3.19925C48.5505 3.49609 48.5524 5.16563 48.5524 11.0478V35.4613C48.5524 50.109 54.3022 56.7247 67.9251 56.7247C81.1567 56.7247 87.2979 49.243 87.2979 35.4613V13.882C87.2979 6.76333 87.2979 3.43559 94.3182 3.17089V0.809326H94.3201Z" fill="#222222"/>
<path d="M135.046 44.3648L118.815 0.809326H114.875L112.669 7.30976L99.8266 42.0922C96.3608 51.4117 95.1375 53.4915 87.374 53.6088V55.959H108.014V53.6088C99.1478 53.0888 99.9608 50.8672 103.135 42.1716L104.238 39.1161H124.962L126.853 44.3648C129.101 50.7594 130.05 53.0869 121.162 53.6088V55.959H143.097V53.5955C138.198 53.4291 137.139 50.1014 135.046 44.3648ZM105.344 36.14L114.641 10.5222H114.955L117.554 18.3556L123.936 36.1382H105.344V36.14Z" fill="#222222"/>
<path d="M190.551 48.8688L176.773 30.2051C184.935 28.857 191.781 24.3627 191.781 15.3041C191.781 4.19586 182.485 0.807617 171.061 0.807617H146.874V3.17107C154.516 3.328 154.516 4.82548 154.516 11.0499V45.715C154.516 51.86 154.516 53.4369 146.874 53.5938V55.9573H170.195V53.5938C162.236 53.4369 162.236 51.9394 162.236 45.715V30.9822H168.837L186.544 55.9421H197.614V53.5957C193.901 53.3556 192.525 51.5026 190.551 48.8688ZM162.236 27.9911V8.92464C162.236 5.22065 162.868 3.72506 167.2 3.72506H171.061C180.357 3.72506 183.351 7.19082 183.351 15.306C183.351 23.5005 180.357 27.9911 170.981 27.9911H162.236Z" fill="#222222"/>
<path d="M229.128 53.0455H222.161C216.016 53.0455 216.016 51.7069 216.016 45.6394V28.3862H221.319C229.389 28.3862 231.021 30.2619 231.614 36.628H233.98V17.1286H231.614C231.021 23.51 229.395 25.3894 221.317 25.3894H216.016V11.2862C216.016 5.06182 216.095 3.72317 222.161 3.72317H231.535C238.705 3.72317 241.541 7.50468 242.171 18.8511C242.172 18.8984 242.176 18.9494 242.178 19.0024H244.931L244.613 0.807617H201.391V3.17107C208.292 3.4093 208.292 5.11287 208.292 11.1274V45.715C208.292 51.7314 208.292 53.3518 201.391 53.5938V55.9573H244.487L244.835 38.4961H242.176C241.392 48.2695 238.882 53.0455 229.128 53.0455Z" fill="#222222"/>
</svg>
